<?xml version="1.0" encoding="UTF-8"?><svg id="_レイヤー_2" xmlns="http://www.w3.org/2000/svg" viewBox="0 0 101.75 101.75"><defs><style>.cls-1{fill:none;stroke:#efea3a;stroke-miterlimit:10;stroke-width:4px;}.cls-2{fill:#040000;stroke-width:0px;}</style></defs><g id="_レイヤー_4"><rect class="cls-2" width="101.75" height="101.75"/><path class="cls-1" d="M7.08,10.9c7.14,0,7.14,20.01,14.27,20.01s7.14-20.01,14.28-20.01,7.14,20.01,14.27,20.01,7.14-20.01,14.28-20.01,7.14,20.01,14.28,20.01"/><path class="cls-1" d="M15.18,40.19c7.14,0,7.14,20.01,14.27,20.01s7.14-20.01,14.28-20.01,7.14,20.01,14.27,20.01,7.14-20.01,14.28-20.01,7.14,20.01,14.28,20.01"/><path class="cls-1" d="M23.29,71.28c7.14,0,7.14,20.01,14.27,20.01s7.14-20.01,14.28-20.01,7.14,20.01,14.27,20.01,7.14-20.01,14.28-20.01,7.14,20.01,14.28,20.01"/></g></svg>